<svg id="_0" data-name="0" xmlns="http://www.w3.org/2000/svg" viewBox="0 0 774.43 879.31"><defs><style>.cls-1{fill:none;stroke:#000;stroke-linecap:round;stroke-linejoin:round;stroke-width:0.57px;}</style></defs><g id="CIRCLE"><path class="cls-1" d="M621.15,109.7A11.34,11.34,0,1,1,632.48,121a11.34,11.34,0,0,1-11.33-11.34Z" transform="translate(80.71 43.65)"/></g><g id="ARC"><path class="cls-1" d="M693.43,182A35.43,35.43,0,0,0,658,146.55" transform="translate(80.71 43.65)"/></g><g id="LINE"><line class="cls-1" x1="774.14" y1="225.64" x2="774.14" y2="843.59"/></g><g id="ARC-2" data-name="ARC"><path class="cls-1" d="M658,835.37a35.43,35.43,0,0,0,35.43-35.43" transform="translate(80.71 43.65)"/></g><g id="LINE-2" data-name="LINE"><line class="cls-1" x1="35.72" y1="879.02" x2="738.71" y2="879.02"/></g><g id="ARC-3" data-name="ARC"><path class="cls-1" d="M-80.43,799.94A35.43,35.43,0,0,0-45,835.37" transform="translate(80.71 43.65)"/></g><g id="LINE-3" data-name="LINE"><line class="cls-1" x1="0.28" y1="843.59" x2="0.28" y2="225.64"/></g><g id="ARC-4" data-name="ARC"><path class="cls-1" d="M-45,146.55A35.43,35.43,0,0,0-80.43,182" transform="translate(80.71 43.65)"/></g><g id="LINE-4" data-name="LINE"><line class="cls-1" x1="237.07" y1="190.2" x2="35.72" y2="190.2"/></g><g id="ARC-5" data-name="ARC"><path class="cls-1" d="M156.35,146.55a2.83,2.83,0,1,0,0-1.42" transform="translate(80.71 43.65)"/></g><g id="LINE-5" data-name="LINE"><line class="cls-1" x1="35.72" y1="188.79" x2="237.07" y2="188.79"/></g><g id="ARC-6" data-name="ARC"><path class="cls-1" d="M-80.43,109.7A35.43,35.43,0,0,0-45,145.13" transform="translate(80.71 43.65)"/></g><g id="LINE-6" data-name="LINE"><line class="cls-1" x1="0.28" y1="153.35" x2="0.28" y2="35.72"/></g><g id="ARC-7" data-name="ARC"><path class="cls-1" d="M-45-43.37A35.43,35.43,0,0,0-80.43-7.94" transform="translate(80.71 43.65)"/></g><g id="LINE-7" data-name="LINE"><line class="cls-1" x1="738.71" y1="0.28" x2="35.72" y2="0.28"/></g><g id="ARC-8" data-name="ARC"><path class="cls-1" d="M693.43-7.94A35.43,35.43,0,0,0,658-43.37" transform="translate(80.71 43.65)"/></g><g id="LINE-8" data-name="LINE"><line class="cls-1" x1="774.14" y1="35.72" x2="774.14" y2="153.35"/></g><g id="ARC-9" data-name="ARC"><path class="cls-1" d="M658,145.13a35.43,35.43,0,0,0,35.43-35.43" transform="translate(80.71 43.65)"/></g><g id="LINE-9" data-name="LINE"><line class="cls-1" x1="537.36" y1="188.79" x2="738.71" y2="188.79"/></g><g id="ARC-10" data-name="ARC"><path class="cls-1" d="M456.65,145.13a2.84,2.84,0,1,0,0,1.42" transform="translate(80.71 43.65)"/></g><g id="LINE-10" data-name="LINE"><line class="cls-1" x1="738.71" y1="190.2" x2="537.36" y2="190.2"/></g><g id="CIRCLE-2" data-name="CIRCLE"><path class="cls-1" d="M-65.69,47.35A10.21,10.21,0,0,1-55.48,37.14a10.21,10.21,0,0,1,10.2,10.21,10.2,10.2,0,0,1-10.2,10.2,10.21,10.21,0,0,1-10.21-10.2Z" transform="translate(80.71 43.65)"/></g><g id="CIRCLE-3" data-name="CIRCLE"><path class="cls-1" d="M658.28,47.35a10.21,10.21,0,1,1,10.2,10.2,10.21,10.21,0,0,1-10.2-10.2Z" transform="translate(80.71 43.65)"/></g><g id="CIRCLE-4" data-name="CIRCLE"><path class="cls-1" d="M-45.85,251.43a10.21,10.21,0,0,1,10.21-10.2,10.2,10.2,0,0,1,10.2,10.2,10.21,10.21,0,0,1-10.2,10.21,10.21,10.21,0,0,1-10.21-10.21Z" transform="translate(80.71 43.65)"/></g><g id="CIRCLE-5" data-name="CIRCLE"><path class="cls-1" d="M26.15,251.43a10.21,10.21,0,1,1,10.21,10.21,10.21,10.21,0,0,1-10.21-10.21Z" transform="translate(80.71 43.65)"/></g><g id="CIRCLE-6" data-name="CIRCLE"><path class="cls-1" d="M260.3,251.43a10.2,10.2,0,1,1,10.2,10.21,10.2,10.2,0,0,1-10.2-10.21Z" transform="translate(80.71 43.65)"/></g><g id="CIRCLE-7" data-name="CIRCLE"><path class="cls-1" d="M332.3,251.43a10.2,10.2,0,1,1,10.2,10.21,10.2,10.2,0,0,1-10.2-10.21Z" transform="translate(80.71 43.65)"/></g><g id="CIRCLE-8" data-name="CIRCLE"><path class="cls-1" d="M566.44,251.43a10.21,10.21,0,1,1,10.2,10.21,10.2,10.2,0,0,1-10.2-10.21Z" transform="translate(80.71 43.65)"/></g><g id="CIRCLE-9" data-name="CIRCLE"><path class="cls-1" d="M638.44,251.43a10.21,10.21,0,1,1,10.2,10.21,10.2,10.2,0,0,1-10.2-10.21Z" transform="translate(80.71 43.65)"/></g><g id="CIRCLE-10" data-name="CIRCLE"><path class="cls-1" d="M-30.82,109.7A11.34,11.34,0,0,1-19.48,98.36,11.34,11.34,0,0,1-8.15,109.7,11.34,11.34,0,0,1-19.48,121,11.34,11.34,0,0,1-30.82,109.7Z" transform="translate(80.71 43.65)"/></g></svg>