<svg width="774" height="891" viewBox="0 0 774 891" fill="none" xmlns="http://www.w3.org/2000/svg">
<path fill-rule="evenodd" clip-rule="evenodd" d="M0 30C0 13.4315 13.4315 0 30 0H744C760.569 0 774 13.4315 774 30V167C774 183.569 760.569 197 744 197H540C539.448 197 539 197.448 539 198C539 198.552 539.448 199 540 199H744C760.569 199 774 212.431 774 229V861C774 877.569 760.569 891 744 891H30C13.4315 891 0 877.569 0 861V229C0 212.431 13.4315 199 30 199H234C234.552 199 235 198.552 235 198C235 197.448 234.552 197 234 197H30C13.4315 197 0 183.569 0 167V30ZM361.4 322.2C361.4 327.833 356.833 332.4 351.2 332.4C345.567 332.4 341 327.833 341 322.2C341 316.567 345.567 312 351.2 312C356.833 312 361.4 316.567 361.4 322.2ZM423.2 332.4C428.833 332.4 433.4 327.833 433.4 322.2C433.4 316.567 428.833 312 423.2 312C417.567 312 413 316.567 413 322.2C413 327.833 417.567 332.4 423.2 332.4ZM25.0727 117.272C20.1941 120.088 13.9559 118.417 11.1392 113.538C8.32258 108.66 9.99411 102.422 14.8727 99.6049C19.7513 96.7882 25.9895 98.4598 28.8061 103.338C31.6228 108.217 29.9513 114.455 25.0727 117.272ZM46.2833 176.81C49.4037 182.214 56.3147 184.066 61.7194 180.946C67.1241 177.825 68.9759 170.914 65.8555 165.51C62.7351 160.105 55.8241 158.253 50.4194 161.374C45.0147 164.494 43.1629 171.405 46.2833 176.81ZM748.192 117.372C743.313 114.555 741.642 108.317 744.458 103.438C747.275 98.5598 753.513 96.8883 758.392 99.7049C763.27 102.522 764.942 108.76 762.125 113.638C759.309 118.517 753.07 120.188 748.192 117.372ZM707.236 165.51C704.115 170.914 705.967 177.825 711.372 180.946C716.777 184.066 723.688 182.214 726.808 176.81C729.928 171.405 728.077 164.494 722.672 161.374C717.267 158.253 710.356 160.105 707.236 165.51ZM56.4 322.2C56.4 327.833 51.8333 332.4 46.2 332.4C40.5667 332.4 36 327.833 36 322.2C36 316.567 40.5667 312 46.2 312C51.8333 312 56.4 316.567 56.4 322.2ZM656.2 332.4C661.833 332.4 666.4 327.833 666.4 322.2C666.4 316.567 661.833 312 656.2 312C650.567 312 646 316.567 646 322.2C646 327.833 650.567 332.4 656.2 332.4ZM128.4 322.2C128.4 327.833 123.833 332.4 118.2 332.4C112.567 332.4 108 327.833 108 322.2C108 316.567 112.567 312 118.2 312C123.833 312 128.4 316.567 128.4 322.2ZM728.2 332.4C733.833 332.4 738.4 327.833 738.4 322.2C738.4 316.567 733.833 312 728.2 312C722.567 312 718 316.567 718 322.2C718 327.833 722.567 332.4 728.2 332.4Z" fill="black"/>
</svg>
