<svg width="774" height="600" viewBox="0 0 774 600" fill="none" xmlns="http://www.w3.org/2000/svg">
<path fill-rule="evenodd" clip-rule="evenodd" d="M0 30C0 13.4315 13.4315 0 30 0H744C760.569 0 774 13.4315 774 30V570C774 586.569 760.569 600 744 600H30C13.4315 600 0 586.569 0 570V30ZM361.4 51.2C361.4 56.8333 356.833 61.4 351.2 61.4C345.567 61.4 341 56.8333 341 51.2C341 45.5667 345.567 41 351.2 41C356.833 41 361.4 45.5667 361.4 51.2ZM423.2 61.4C428.833 61.4 433.4 56.8333 433.4 51.2C433.4 45.5667 428.833 41 423.2 41C417.567 41 413 45.5667 413 51.2C413 56.8333 417.567 61.4 423.2 61.4ZM56.4 51.2C56.4 56.8333 51.8333 61.4 46.2 61.4C40.5667 61.4 36 56.8333 36 51.2C36 45.5667 40.5667 41 46.2 41C51.8333 41 56.4 45.5667 56.4 51.2ZM656.2 61.4C661.833 61.4 666.4 56.8333 666.4 51.2C666.4 45.5667 661.833 41 656.2 41C650.567 41 646 45.5667 646 51.2C646 56.8333 650.567 61.4 656.2 61.4ZM128.4 51.2C128.4 56.8333 123.833 61.4 118.2 61.4C112.567 61.4 108 56.8333 108 51.2C108 45.5667 112.567 41 118.2 41C123.833 41 128.4 45.5667 128.4 51.2ZM728.2 61.4C733.833 61.4 738.4 56.8333 738.4 51.2C738.4 45.5667 733.833 41 728.2 41C722.567 41 718 45.5667 718 51.2C718 56.8333 722.567 61.4 728.2 61.4Z" fill="black"/>
</svg>
